<svg xmlns="http://www.w3.org/2000/svg" viewBox="0 0 56 32" width="56" height="32">
  <path d="M5,10.8 C12,9.4 17,9.9 21,11 C23,11.5 24.5,11.9 25.4,12.4 C26.6,12.8 26.6,14 25.4,14.4 C21,14.2 18,14.1 15,14.6 C14.4,14.9 14.4,17.1 15,17.4 C18,17.9 21,17.8 25.4,17.6 C26.6,17.8 26.6,19.4 25.4,19.6 C24.5,20.1 23,20.5 21,21 C17,22.1 12,22.6 5,21.2 C1.4,21 1.4,11 5,10.8 Z" fill="currentColor"></path>
  <path d="M51,10.8 C44,9.4 39,9.9 35,11 C33,11.5 31.5,11.9 30.6,12.4 C29.4,12.8 29.4,14 30.6,14.4 C35,14.2 38,14.1 41,14.6 C41.6,14.9 41.6,17.1 41,17.4 C38,17.9 35,17.8 30.6,17.6 C29.4,17.8 29.4,19.4 30.6,19.6 C31.5,20.1 33,20.5 35,21 C39,22.1 44,22.6 51,21.2 C54.6,21 54.6,11 51,10.8 Z" fill="currentColor"></path>
  <path d="M9,27 L47,5" fill="none" stroke="currentColor" stroke-width="3.4" stroke-linecap="round"></path>
</svg>