<svg xmlns="http://www.w3.org/2000/svg" viewBox="0 0 64 36" width="64" height="36">
  <path d="M5,13.6 C13,12.4 19,12.8 24,13.6 C27,14.1 29,14.4 30.4,14.7 C31.6,15 31.6,16 30.4,16.3 C26,16 21,15.9 16.5,16.4 C16,16.6 16,19.4 16.5,19.6 C21,20.1 26,20 30.4,19.7 C31.6,19.7 31.6,21 30.4,21.3 C29,21.6 27,21.9 24,22.4 C19,23.2 13,23.6 5,22.4 C1.8,22.2 1.8,13.8 5,13.6 Z" fill="currentColor"></path>
  <path d="M59,13.6 C51,12.4 45,12.8 40,13.6 C37,14.1 35,14.4 33.6,14.7 C32.4,15 32.4,16 33.6,16.3 C38,16 43,15.9 47.5,16.4 C48,16.6 48,19.4 47.5,19.6 C43,20.1 38,20 33.6,19.7 C32.4,19.7 32.4,21 33.6,21.3 C35,21.6 37,21.9 40,22.4 C45,23.2 51,23.6 59,22.4 C62.2,22.2 62.2,13.8 59,13.6 Z" fill="currentColor"></path>
</svg>