<svg xmlns="http://www.w3.org/2000/svg" viewBox="0 0 1024 1024" width="1024" height="1024">
  <defs>
    <clipPath id="squircle">
      <path d="M512,0 C161,0 0,161 0,512 C0,863 161,1024 512,1024 C863,1024 1024,863 1024,512 C1024,161 863,0 512,0 Z"></path>
    </clipPath>
    <linearGradient id="field" x1="0.13" y1="0" x2="0.87" y2="1">
      <stop offset="0" stop-color="#3fe0cf"></stop>
      <stop offset="0.38" stop-color="#25b0d6"></stop>
      <stop offset="0.72" stop-color="#2173db"></stop>
      <stop offset="1" stop-color="#1a4fc4"></stop>
    </linearGradient>
    <radialGradient id="toplight" cx="0.5" cy="0.06" r="0.62">
      <stop offset="0" stop-color="#b4fff6" stop-opacity="0.5"></stop>
      <stop offset="0.55" stop-color="#b4fff6" stop-opacity="0"></stop>
    </radialGradient>
    <radialGradient id="vignette" cx="0.5" cy="1.22" r="0.7">
      <stop offset="0" stop-color="#081448" stop-opacity="0.58"></stop>
      <stop offset="0.55" stop-color="#081448" stop-opacity="0"></stop>
    </radialGradient>
    <radialGradient id="specular" cx="0.28" cy="0.16" r="0.5">
      <stop offset="0" stop-color="#ffffff" stop-opacity="0.32"></stop>
      <stop offset="0.7" stop-color="#ffffff" stop-opacity="0"></stop>
    </radialGradient>
    <linearGradient id="topsheen" x1="0" y1="0" x2="0" y2="1">
      <stop offset="0" stop-color="#ffffff" stop-opacity="0.42"></stop>
      <stop offset="0.17" stop-color="#ffffff" stop-opacity="0.08"></stop>
      <stop offset="0.4" stop-color="#ffffff" stop-opacity="0"></stop>
    </linearGradient>
    <filter id="lift" x="-20%" y="-20%" width="140%" height="160%">
      <feDropShadow dx="0" dy="14" stdDeviation="18" flood-color="#04143c" flood-opacity="0.5"></feDropShadow>
    </filter>
  </defs>
  <g clip-path="url(#squircle)">
    <rect width="1024" height="1024" fill="url(#field)"></rect>
    <rect width="1024" height="1024" fill="url(#vignette)"></rect>
    <rect width="1024" height="1024" fill="url(#toplight)"></rect>
    <rect width="1024" height="1024" fill="url(#specular)"></rect>
    <rect width="1024" height="1024" fill="url(#topsheen)"></rect>
    <g filter="url(#lift)" fill="#ffffff" transform="translate(512 512) scale(13.2) translate(-32 -18)">
      <path d="M5,13.6 C13,12.4 19,12.8 24,13.6 C27,14.1 29,14.4 30.4,14.7 C31.6,15 31.6,16 30.4,16.3 C26,16 21,15.9 16.5,16.4 C16,16.6 16,19.4 16.5,19.6 C21,20.1 26,20 30.4,19.7 C31.6,19.7 31.6,21 30.4,21.3 C29,21.6 27,21.9 24,22.4 C19,23.2 13,23.6 5,22.4 C1.8,22.2 1.8,13.8 5,13.6 Z"></path>
      <path d="M59,13.6 C51,12.4 45,12.8 40,13.6 C37,14.1 35,14.4 33.6,14.7 C32.4,15 32.4,16 33.6,16.3 C38,16 43,15.9 47.5,16.4 C48,16.6 48,19.4 47.5,19.6 C43,20.1 38,20 33.6,19.7 C32.4,19.7 32.4,21 33.6,21.3 C35,21.6 37,21.9 40,22.4 C45,23.2 51,23.6 59,22.4 C62.2,22.2 62.2,13.8 59,13.6 Z"></path>
    </g>
  </g>
</svg>