<svg xmlns="http://www.w3.org/2000/svg" viewBox="0 0 1280 320" width="1280" height="320">
  <defs>
  <linearGradient id="bg" x1="0" y1="0" x2="1" y2="0.8">
    <stop offset="0" stop-color="#f4fbfc"></stop><stop offset="0.5" stop-color="#eaf5fb"></stop><stop offset="1" stop-color="#e4eefc"></stop>
  </linearGradient>
  <radialGradient id="bgteal" cx="0.86" cy="0.06" r="0.72"><stop offset="0" stop-color="#3fe0cf" stop-opacity="0.5"></stop><stop offset="0.5" stop-color="#3fe0cf" stop-opacity="0"></stop></radialGradient>
  <radialGradient id="bgblue" cx="0.98" cy="1.28" r="0.75"><stop offset="0" stop-color="#2173db" stop-opacity="0.4"></stop><stop offset="0.58" stop-color="#2173db" stop-opacity="0"></stop></radialGradient>
  <radialGradient id="scrim" cx="0.2" cy="0.52" r="0.75"><stop offset="0" stop-color="#f4fbfc" stop-opacity="0.94"></stop><stop offset="0.4" stop-color="#f4fbfc" stop-opacity="0.58"></stop><stop offset="0.66" stop-color="#f4fbfc" stop-opacity="0"></stop></radialGradient>
  <linearGradient id="iconfield" x1="0.13" y1="0" x2="0.87" y2="1">
    <stop offset="0" stop-color="#3fe0cf"></stop><stop offset="0.38" stop-color="#25b0d6"></stop>
    <stop offset="0.72" stop-color="#2173db"></stop><stop offset="1" stop-color="#1a4fc4"></stop>
  </linearGradient>
  <radialGradient id="iconvig" cx="0.5" cy="1.22" r="0.7"><stop offset="0" stop-color="#081448" stop-opacity="0.5"></stop><stop offset="0.55" stop-color="#081448" stop-opacity="0"></stop></radialGradient>
  <radialGradient id="icontop" cx="0.5" cy="0.06" r="0.62"><stop offset="0" stop-color="#b4fff6" stop-opacity="0.5"></stop><stop offset="0.55" stop-color="#b4fff6" stop-opacity="0"></stop></radialGradient>
  <linearGradient id="iconsheen" x1="0" y1="0" x2="0" y2="1"><stop offset="0" stop-color="#ffffff" stop-opacity="0.4"></stop><stop offset="1" stop-color="#ffffff" stop-opacity="0"></stop></linearGradient>
  <filter id="glyphshadow" x="-30%" y="-30%" width="160%" height="180%"><feDropShadow dx="0" dy="2" stdDeviation="2.5" flood-color="#04143c" flood-opacity="0.45"></feDropShadow></filter><linearGradient id="sheenL" x1="0" y1="0" x2="0" y2="1"><stop offset="0" stop-color="#ffffff" stop-opacity="0.5"></stop><stop offset="1" stop-color="#ffffff" stop-opacity="0"></stop></linearGradient></defs>
  <clipPath id="frame"><rect width="1280" height="320" rx="0"></rect></clipPath>
  <g clip-path="url(#frame)">
    <rect width="1280" height="320" fill="url(#bg)"></rect><rect width="1280" height="320" fill="url(#bgteal)"></rect><rect width="1280" height="320" fill="url(#bgblue)"></rect>
    
  <g fill="none" stroke-linecap="round">
    <path d="M-40,150 C 260,150 320,96 560,96 C 900,96 900,150 1340,150" stroke="rgba(37,176,214,.5)" stroke-width="2.2"></path>
    <path d="M-40,168 C 260,168 320,132 560,132 C 900,132 900,168 1340,168" stroke="rgba(37,176,214,.3)" stroke-width="1.8"></path>
    <path d="M-40,180 C 300,180 340,206 600,206 C 940,206 940,180 1340,180" stroke="rgba(33,115,219,.42)" stroke-width="2"></path>
    <path d="M-40,196 C 300,196 340,236 600,236 C 940,236 940,196 1340,196" stroke="rgba(33,115,219,.24)" stroke-width="1.6"></path>
    <path d="M-40,138 C 240,138 300,70 560,70 C 900,70 920,120 1340,120" stroke="rgba(37,176,214,.2)" stroke-width="1.4"></path>
  </g>
    <line x1="560" y1="40" x2="600" y2="280" stroke="rgba(30,90,150,.2)" stroke-width="2.4" stroke-dasharray="5 9" stroke-linecap="round"></line>
    <rect width="1280" height="320" fill="url(#scrim)"></rect>
    <rect width="1280" height="140" fill="url(#sheenL)"></rect>
    
  <g>
    <clipPath id="iconclip"><rect x="68" y="108" width="104" height="104" rx="25"></rect></clipPath>
    <g clip-path="url(#iconclip)">
      <rect x="68" y="108" width="104" height="104" fill="url(#iconfield)"></rect>
      <rect x="68" y="108" width="104" height="104" fill="url(#iconvig)"></rect>
      <rect x="68" y="108" width="104" height="104" fill="url(#icontop)"></rect>
      <rect x="68" y="108" width="104" height="52" fill="url(#iconsheen)"></rect>
      
  <g transform="translate(83,139) scale(1.15625)" fill="#ffffff" filter="url(#glyphshadow)">
    <path d="M5,13.6 C13,12.4 19,12.8 24,13.6 C27,14.1 29,14.4 30.4,14.7 C31.6,15 31.6,16 30.4,16.3 C26,16 21,15.9 16.5,16.4 C16,16.6 16,19.4 16.5,19.6 C21,20.1 26,20 30.4,19.7 C31.6,19.7 31.6,21 30.4,21.3 C29,21.6 27,21.9 24,22.4 C19,23.2 13,23.6 5,22.4 C1.8,22.2 1.8,13.8 5,13.6 Z"></path>
    <path d="M59,13.6 C51,12.4 45,12.8 40,13.6 C37,14.1 35,14.4 33.6,14.7 C32.4,15 32.4,16 33.6,16.3 C38,16 43,15.9 47.5,16.4 C48,16.6 48,19.4 47.5,19.6 C43,20.1 38,20 33.6,19.7 C32.4,19.7 32.4,21 33.6,21.3 C35,21.6 37,21.9 40,22.4 C45,23.2 51,23.6 59,22.4 C62.2,22.2 62.2,13.8 59,13.6 Z"></path>
  </g>
    </g>
    <rect x="68.5" y="108.5" width="103" height="103" rx="24.5" fill="none" stroke="rgba(255,255,255,.18)" stroke-width="1"></rect>
  </g>
    
  <text x="208" y="163" font-family="-apple-system, &#39;SF Pro Display&#39;, &#39;Helvetica Neue&#39;, Helvetica, Arial, sans-serif" font-size="62" font-weight="600" letter-spacing="-1.7" fill="#12283f">Slipstream</text>
  <text x="210" y="205" font-family="-apple-system, &#39;SF Pro Display&#39;, &#39;Helvetica Neue&#39;, Helvetica, Arial, sans-serif" font-size="22" font-weight="400" fill="rgba(30,70,110,.66)">тихий обход цензуры для macOS</text>
  </g>
</svg>